HIERARCHY
ROOT Pelvis
{
	OFFSET 0.000000 0.000000 0.000000
	CHANNELS 6 Xposition Yposition Zposition Xrotation Yrotation Zrotation
	JOINT LeftUpLeg_virtual
	{
		OFFSET 0.000000 0.000000 0.000000
		CHANNELS 3 Xrotation Yrotation Zrotation
		JOINT LeftUpLeg
		{
			OFFSET 18.735201 -5.666702 -4.541200
			CHANNELS 3 Xrotation Yrotation Zrotation
			JOINT LeftLeg
			{
				OFFSET -0.021200 -31.938179 0.493100
				CHANNELS 3 Xrotation Yrotation Zrotation
				JOINT LeftFoot
				{
					OFFSET 0.021200 -31.938179 -4.336299
					CHANNELS 3 Xrotation Yrotation Zrotation
					JOINT LeftToeBase
					{
						OFFSET 0.943001 -26.722000 15.023500
						CHANNELS 3 Xrotation Yrotation Zrotation
						End Site
						{
							OFFSET 0 0 0
						}
					}
				}
			}
		}
	}
	JOINT RightUpLeg_virtual
	{
		OFFSET 0.000000 0.000000 0.000000
		CHANNELS 3 Xrotation Yrotation Zrotation
		JOINT RightUpLeg
		{
			OFFSET -18.735201 -5.666702 -4.541200
			CHANNELS 3 Xrotation Yrotation Zrotation
			JOINT RightLeg
			{
				OFFSET 0.018946 -31.938133 0.493100
				CHANNELS 3 Xrotation Yrotation Zrotation
				JOINT RightFoot
				{
					OFFSET -0.018946 -31.938126 -4.336299
					CHANNELS 3 Xrotation Yrotation Zrotation
					JOINT RightToeBase
					{
						OFFSET -0.943001 -26.722004 15.023500
						CHANNELS 3 Xrotation Yrotation Zrotation
						End Site
						{
							OFFSET 0 0 0
						}
					}
				}
			}
		}
	}
	JOINT Hips_virtual
	{
		OFFSET 0.000000 0.000000 0.000000
		CHANNELS 3 Xrotation Yrotation Zrotation
		JOINT Hips
		{
			OFFSET -0.000000 -0.000000 -0.000000
			CHANNELS 3 Xrotation Yrotation Zrotation
			JOINT Spine
			{
				OFFSET 0.000000 10.199997 -0.299500
				CHANNELS 3 Xrotation Yrotation Zrotation
				JOINT Spine1
				{
					OFFSET 0.000000 11.900002 -1.516600
					CHANNELS 3 Xrotation Yrotation Zrotation
					JOINT Spine2
					{
						OFFSET 0.000000 13.600006 -2.842500
						CHANNELS 3 Xrotation Yrotation Zrotation
						JOINT Neck_virtual
						{
							OFFSET 0.000000 0.000000 0.000000
							CHANNELS 3 Xrotation Yrotation Zrotation
							JOINT Neck
							{
								OFFSET 0.000000 9.624100 -2.890100
								CHANNELS 3 Xrotation Yrotation Zrotation
								JOINT Head
								{
									OFFSET 0.000000 14.068802 -1.351900
									CHANNELS 3 Xrotation Yrotation Zrotation
									End Site
									{
										OFFSET 0 0 0
									}
								}
							}
						}
						JOINT LeftShoulder_virtual
						{
							OFFSET 0.000000 0.000000 0.000000
							CHANNELS 3 Xrotation Yrotation Zrotation
							JOINT LeftShoulder
							{
								OFFSET 15.263000 10.923401 -0.547700
								CHANNELS 3 Xrotation Yrotation Zrotation
								JOINT LeftArm
								{
									OFFSET 25.438599 -2.830597 -13.032500
									CHANNELS 3 Xrotation Yrotation Zrotation
									JOINT LeftForeArm
									{
										OFFSET 29.960503 0.000000 0.000000
										CHANNELS 3 Xrotation Yrotation Zrotation
										JOINT LeftHand
										{
											OFFSET 27.849251 0.000000 0.000000
											CHANNELS 3 Xrotation Yrotation Zrotation
											End Site
											{
												OFFSET 0 0 0
											}
										}
									}
								}
							}
						}
						JOINT RightShoulder_virtual
						{
							OFFSET 0.000000 0.000000 0.000000
							CHANNELS 3 Xrotation Yrotation Zrotation
							JOINT RightShoulder
							{
								OFFSET -15.263000 10.923401 -0.547700
								CHANNELS 3 Xrotation Yrotation Zrotation
								JOINT RightArm
								{
									OFFSET -25.438599 -2.830597 -13.032500
									CHANNELS 3 Xrotation Yrotation Zrotation
									JOINT RightForeArm
									{
										OFFSET -29.960503 0.000000 0.000000
										CHANNELS 3 Xrotation Yrotation Zrotation
										JOINT RightHand
										{
											OFFSET -27.849251 0.000000 0.000000
											CHANNELS 3 Xrotation Yrotation Zrotation
											End Site
											{
												OFFSET 0 0 0
											}
										}
									}
								}
							}
						}
					}
				}
			}
		}
	}
}
MOTION
Frames: 13
Frame Time: 0.03333333
-3.218311 78.475853 2.514287 0.000000 0.000000 0.000000 -8.657336 -17.798372 1.488922 -57.423736 2.443397 21.300064 48.943418 -10.246348 -1.801723 -3.553820 -9.755121 -15.698797 0.000000 0.000000 0.000000 8.310336 -35.954771 -3.291839 -23.637864 -13.837271 -24.517589 46.367111 7.311717 0.610245 -11.918297 2.183094 17.758642 0.000000 0.000000 0.000000 1.142059 -19.880328 0.866317 5.040123 -31.562827 5.169117 10.906104 5.590298 -4.522102 5.223268 4.181166 -3.065358 0.000000 0.000000 0.000000 -0.294021 5.607576 -2.722854 -2.186580 3.117137 -0.559425 0.000000 0.000000 0.000000 -3.236826 3.841809 -3.163876 -3.846201 -3.511704 -6.951028 -31.439583 12.085853 -46.919517 -10.109973 -26.874834 -7.816215 0.000000 0.000000 0.000000 -3.903439 5.870034 -2.547838 -4.085919 19.864545 -2.189385 -18.948907 -18.974634 49.370571 -12.356009 29.165516 15.886221 0.000000 0.000000 0.000000 
-3.186359 78.543472 2.329947 0.000000 0.000000 0.000000 -8.642186 -18.020153 1.501251 -57.443885 2.390899 21.322181 48.917473 -10.221947 -1.858091 -3.527940 -9.706784 -15.785899 0.000000 0.000000 0.000000 8.307359 -36.143360 -3.299586 -23.668475 -13.870168 -24.548320 46.494860 7.414273 0.609041 -11.819132 2.291407 17.831360 0.000000 0.000000 0.000000 1.162379 -20.183759 0.908821 5.051263 -31.492739 5.057947 10.884395 5.542887 -4.537394 5.272945 4.170784 -3.101819 0.000000 0.000000 0.000000 -0.249823 5.627020 -2.807623 -2.178879 3.154074 -0.597866 0.000000 0.000000 0.000000 -3.246852 3.847291 -3.179640 -3.846208 -3.587319 -6.676727 -31.335829 12.138922 -46.861470 -9.987215 -26.644001 -7.828449 0.000000 0.000000 0.000000 -3.940810 5.910417 -2.597646 -4.027509 19.746231 -2.318793 -18.554834 -19.214654 49.455873 -12.322794 29.136938 16.062624 0.000000 0.000000 0.000000 
-3.128914 78.668816 1.986697 0.000000 0.000000 0.000000 -8.584239 -18.459472 1.550809 -57.457757 2.282575 21.384467 48.850585 -10.162187 -1.968553 -3.501314 -9.594855 -15.945080 0.000000 0.000000 0.000000 8.302664 -36.497454 -3.303380 -23.734455 -13.932505 -24.599534 46.749797 7.613744 0.605166 -11.619386 2.504789 17.973271 0.000000 0.000000 0.000000 1.208552 -20.793008 1.003970 5.054489 -31.320270 4.850942 10.841566 5.454414 -4.562614 5.366525 4.145528 -3.171153 0.000000 0.000000 0.000000 -0.168855 5.661517 -2.971254 -2.163588 3.221594 -0.671710 0.000000 0.000000 0.000000 -3.257993 3.854268 -3.218263 -3.839102 -3.721864 -6.183309 -31.089833 12.254964 -46.743977 -9.744761 -26.201661 -7.848634 0.000000 0.000000 0.000000 -4.000788 5.980117 -2.688156 -3.915215 19.509351 -2.552672 -17.863888 -19.632226 49.601606 -12.272624 29.138359 16.402172 0.000000 0.000000 0.000000 
-3.055328 78.835449 1.527383 0.000000 0.000000 0.000000 -8.441740 -19.104789 1.673595 -57.425601 2.115658 21.511951 48.721546 -10.049676 -2.129294 -3.512935 -9.394943 -16.152183 0.000000 0.000000 0.000000 8.298541 -36.982811 -3.285398 -23.842773 -14.019542 -24.656891 47.125682 7.902163 0.595537 -11.321268 2.818907 18.178246 0.000000 0.000000 0.000000 1.290159 -21.705061 1.168066 5.022151 -31.007843 4.577256 10.784274 5.334099 -4.590904 5.495247 4.098441 -3.267599 0.000000 0.000000 0.000000 -0.062439 5.703805 -3.202987 -2.141309 3.309676 -0.775376 0.000000 0.000000 0.000000 -3.254530 3.856221 -3.290265 -3.813386 -3.885184 -5.563138 -30.646458 12.446921 -46.569394 -9.390782 -25.583491 -7.870749 0.000000 0.000000 0.000000 -4.058491 6.061148 -2.805273 -3.755323 19.157675 -2.853128 -17.034907 -20.122857 49.765284 -12.239465 29.275246 16.883683 0.000000 0.000000 0.000000 
-2.972764 79.025169 1.000351 0.000000 0.000000 0.000000 -8.178571 -19.933953 1.896822 -57.313121 1.893202 21.721047 48.514420 -9.866666 -2.336055 -3.599625 -9.082383 -16.382142 0.000000 0.000000 0.000000 8.297054 -37.570483 -3.230012 -24.000228 -14.127874 -24.710707 47.603174 8.273195 0.575525 -10.937769 3.230543 18.438601 0.000000 0.000000 0.000000 1.417769 -22.901064 1.416792 4.933826 -30.549257 4.275968 10.730908 5.189359 -4.618909 5.651459 4.023095 -3.385216 0.000000 0.000000 0.000000 0.059147 5.745895 -3.488807 -2.113391 3.408662 -0.901559 0.000000 0.000000 0.000000 -3.217473 3.846249 -3.404194 -3.757193 -4.038641 -4.918255 -29.963466 12.719866 -46.350319 -8.940248 -24.836065 -7.890237 0.000000 0.000000 0.000000 -4.086001 6.134476 -2.935414 -3.552329 18.703652 -3.185938 -16.233772 -20.571089 49.898773 -12.273470 29.678613 17.485388 0.000000 0.000000 0.000000 
-2.882445 79.222061 0.448914 0.000000 0.000000 0.000000 -7.780301 -20.914586 2.223535 -57.106074 1.627054 22.008358 48.225090 -9.599594 -2.585081 -3.783775 -8.639581 -16.615287 0.000000 0.000000 0.000000 8.297452 -38.247895 -3.130534 -24.213557 -14.256568 -24.761946 48.145006 8.723289 0.539680 -10.497237 3.737321 18.745328 0.000000 0.000000 0.000000 1.598058 -24.340515 1.757577 4.790140 -29.993789 3.988948 10.711111 5.022838 -4.649606 5.831822 3.916036 -3.519341 0.000000 0.000000 0.000000 0.190196 5.780776 -3.812939 -2.081545 3.512625 -1.042108 0.000000 0.000000 0.000000 -3.128503 3.818825 -3.562301 -3.661733 -4.140721 -4.335194 -29.031921 13.060896 -46.112817 -8.413541 -24.009828 -7.905804 0.000000 0.000000 0.000000 -4.059149 6.184499 -3.069168 -3.306933 18.169014 -3.532458 -15.583970 -20.878768 49.960231 -12.432689 30.477759 18.190501 0.000000 0.000000 0.000000 
-2.779472 79.413963 -0.094523 0.000000 0.000000 0.000000 -7.259026 -22.010339 2.630019 -56.814084 1.335912 22.349984 47.861120 -9.240741 -2.873158 -4.068678 -8.059841 -16.839217 0.000000 0.000000 0.000000 8.294250 -39.018859 -2.990528 -24.491166 -14.406322 -24.821623 48.697982 9.249132 0.483257 -10.041274 4.334697 19.087761 0.000000 0.000000 0.000000 1.827995 -25.966195 2.183718 4.618477 -29.441759 3.751565 10.757009 4.832739 -4.691198 6.037709 3.777577 -3.666931 0.000000 0.000000 0.000000 0.330214 5.803011 -4.158885 -2.046815 3.620509 -1.188671 0.000000 0.000000 0.000000 -2.973480 3.770608 -3.759139 -3.523216 -4.153227 -3.870177 -27.878466 13.435010 -45.893107 -7.831935 -23.151432 -7.918933 0.000000 0.000000 0.000000 -3.961809 6.200540 -3.201817 -3.016800 17.580019 -3.892199 -15.142092 -20.981660 49.920053 -12.769720 31.771779 18.989125 0.000000 0.000000 0.000000 
-2.656428 79.591660 -0.609200 0.000000 0.000000 0.000000 -6.645741 -23.190398 3.076899 -56.463340 1.039199 22.711345 47.437849 -8.787874 -3.196244 -4.440427 -7.348046 -17.046294 0.000000 0.000000 0.000000 8.278847 -39.893304 -2.818128 -24.843128 -14.577627 -24.903131 49.203542 9.843309 0.404060 -9.615015 5.012368 19.453545 0.000000 0.000000 0.000000 2.090988 -27.718946 2.672920 4.467539 -29.014265 3.585337 10.890551 4.615415 -4.753070 6.272860 3.610657 -3.825985 0.000000 0.000000 0.000000 0.482341 5.808157 -4.510106 -2.008381 3.734627 -1.333042 0.000000 0.000000 0.000000 -2.744713 3.700253 -3.983266 -3.343176 -4.048488 -3.545872 -26.552584 13.788854 -45.728895 -7.211929 -22.297837 -7.931901 0.000000 0.000000 0.000000 -3.787073 6.175843 -3.331781 -2.679160 16.959460 -4.277782 -14.903053 -20.852462 49.759151 -13.319655 33.605504 19.877280 0.000000 0.000000 0.000000 
-2.508982 79.747543 -1.083577 0.000000 0.000000 0.000000 -5.975066 -24.436337 3.527714 -56.083489 0.750432 23.061927 46.975371 -8.243210 -3.547080 -4.872417 -6.519541 -17.229101 0.000000 0.000000 0.000000 8.245860 -40.873266 -2.615819 -25.277092 -14.769625 -25.011538 49.613487 10.491400 0.303525 -9.253463 5.753050 19.829559 0.000000 0.000000 0.000000 2.358458 -29.554492 3.191567 4.393475 -28.815192 3.498032 11.114967 4.367673 -4.841189 6.540031 3.418585 -3.994748 0.000000 0.000000 0.000000 0.651257 5.791507 -4.850673 -1.962968 3.857433 -1.467291 0.000000 0.000000 0.000000 -2.441787 3.607342 -4.220674 -3.127939 -3.816609 -3.355919 -25.108684 14.061161 -45.649105 -6.561677 -21.474227 -7.945654 0.000000 0.000000 0.000000 -3.535797 6.105683 -3.458790 -2.293805 16.319800 -4.707006 -14.826290 -20.495236 49.463031 -14.095731 35.956363 20.855139 0.000000 0.000000 0.000000 
-2.340214 79.875732 -1.512358 0.000000 0.000000 0.000000 -5.271085 -25.741308 3.964374 -55.696439 0.474053 23.386839 46.497725 -7.612471 -3.913077 -5.330403 -5.597888 -17.376479 0.000000 0.000000 0.000000 8.201999 -41.942662 -2.370517 -25.791400 -14.980512 -25.135407 49.904296 11.172706 0.186277 -8.970444 6.534932 20.203618 0.000000 0.000000 0.000000 2.598550 -31.450863 3.703951 4.443575 -28.907263 3.492075 11.415626 4.086734 -4.955496 6.839108 3.202679 -4.171167 0.000000 0.000000 0.000000 0.841853 5.746735 -5.166141 -1.905266 3.988280 -1.584021 0.000000 0.000000 0.000000 -2.070855 3.490898 -4.458066 -2.887532 -3.470414 -3.272858 -23.592136 14.194741 -45.666255 -5.880950 -20.696417 -7.958686 0.000000 0.000000 0.000000 -3.213907 5.985970 -3.582807 -1.864985 15.659909 -5.196221 -14.866120 -19.937373 49.017577 -15.093487 38.736014 21.925862 0.000000 0.000000 0.000000 
-2.160996 79.974312 -1.894863 0.000000 0.000000 0.000000 -4.541596 -27.101608 4.392014 -55.312897 0.207127 23.690091 46.032074 -6.904251 -4.275943 -5.778185 -4.611648 -17.472157 0.000000 0.000000 0.000000 8.172636 -43.066054 -2.049627 -26.369798 -15.208926 -25.246184 50.082574 11.864091 0.058184 -8.756139 7.336405 20.565918 0.000000 0.000000 0.000000 2.787760 -33.402391 4.182667 4.645383 -29.309192 3.576256 11.769423 3.767689 -5.090049 7.167888 2.960963 -4.352766 0.000000 0.000000 0.000000 1.058830 5.665173 -5.444687 -1.829114 4.121641 -1.676950 0.000000 0.000000 0.000000 -1.642808 3.348004 -4.684727 -2.634216 -3.045481 -3.256828 -22.033352 14.146606 -45.773790 -5.164385 -19.975498 -7.967221 0.000000 0.000000 0.000000 -2.829574 5.812751 -3.703561 -1.401919 14.966087 -5.756271 -14.993133 -19.223463 48.410345 -16.299801 41.806249 23.095527 0.000000 0.000000 0.000000 
-1.986303 80.048035 -2.235042 0.000000 0.000000 0.000000 -3.783021 -28.506110 4.832348 -54.937752 -0.056230 23.989412 45.604910 -6.129680 -4.613704 -6.184529 -3.590647 -17.496359 0.000000 0.000000 0.000000 8.200913 -44.196576 -1.606019 -26.982215 -15.455067 -25.305658 50.179347 12.544890 -0.075917 -8.584317 8.140278 20.909635 0.000000 0.000000 0.000000 2.920050 -35.403886 4.615935 5.004057 -30.008440 3.773802 12.156727 3.400643 -5.235384 7.524459 2.688207 -4.536659 0.000000 0.000000 0.000000 1.306819 5.536102 -5.678187 -1.728902 4.247417 -1.741720 0.000000 0.000000 0.000000 -1.170683 3.173225 -4.892797 -2.380506 -2.594898 -3.264256 -20.448068 13.893976 -45.949169 -4.405848 -19.321278 -7.966470 0.000000 0.000000 0.000000 -2.391207 5.582385 -3.820183 -0.917945 14.215711 -6.390608 -15.200559 -18.411917 47.635935 -17.701262 45.003898 24.373358 0.000000 0.000000 0.000000 
-1.829671 80.109024 -2.541804 0.000000 0.000000 0.000000 -2.991881 -29.929701 5.310989 -54.579809 -0.320691 24.307124 45.235240 -5.302383 -4.904124 -6.530380 -2.562910 -17.429145 0.000000 0.000000 0.000000 8.337618 -45.288071 -0.990762 -27.592550 -15.720403 -25.277702 50.235334 13.200173 -0.213295 -8.425558 8.934862 21.230612 0.000000 0.000000 0.000000 3.007705 -37.435666 5.008533 5.509227 -30.975328 4.121848 12.568421 2.970135 -5.381164 7.909146 2.377272 -4.719593 0.000000 0.000000 0.000000 1.590300 5.348303 -5.862879 -1.600512 4.353000 -1.776599 0.000000 0.000000 0.000000 -0.666900 2.959216 -5.076606 -2.136963 -2.180528 -3.255739 -18.842306 13.436625 -46.160491 -3.602525 -18.742708 -7.952380 0.000000 0.000000 0.000000 -1.906447 5.292165 -3.930727 -0.429048 13.382117 -7.094509 -15.498382 -17.572478 46.701787 -19.287546 48.166487 25.770563 0.000000 0.000000 0.000000 
